<svg version="1.2" baseProfile="tiny-ps" xmlns="http://www.w3.org/2000/svg" viewBox="0 0 24 15" width="24" height="15">
	<title>ARROW / DOWN</title>
	<style>
		tspan { white-space:pre }
	
	</style>
	<path id="ARROW / DOWN" class="shp0" d="M4.14 2.52L12 10.38L19.96 2.42L19.96 2.42C20.23 2.16 20.6 2 21 2C21.83 2 22.5 2.67 22.5 3.5C22.5 3.9 22.34 4.27 22.08 4.54L22.08 4.54L13.08 13.54L13.08 13.54C12.81 13.82 12.42 14 12 14C12 14 12 14 12 14C12 14 11.99 14 11.99 14C11.57 14 11.19 13.82 10.91 13.54L10.91 13.54L1.91 4.54L1.92 4.54C1.66 4.27 1.5 3.9 1.5 3.5C1.5 2.67 2.17 2 3 2C3.46 2 3.86 2.2 4.14 2.52Z" />
</svg>