<svg version="1.2" baseProfile="tiny-ps" xmlns="http://www.w3.org/2000/svg" viewBox="0 0 32 33" width="32" height="33">
	<title>PICTURE</title>
	<style>
		tspan { white-space:pre }
		.shp0 { fill: #ffffff } 
	</style>
	<path id="PICTURE" class="shp0" d="M31 26C31 26.65 30.58 27.2 30 27.41L30 29.09C30.58 29.3 31 29.85 31 30.5C31 31.33 30.33 32 29.5 32C28.85 32 28.3 31.58 28.09 31L26.41 31C26.2 31.58 25.65 32 25 32C24.35 32 23.8 31.58 23.59 31L21.91 31C21.7 31.58 21.15 32 20.5 32C19.85 32 19.3 31.58 19.09 31L17.41 31C17.2 31.58 16.65 32 16 32C15.35 32 14.8 31.58 14.59 31L12.91 31C12.7 31.58 12.15 32 11.5 32C10.85 32 10.3 31.58 10.09 31L8.41 31C8.2 31.58 7.65 32 7 32C6.35 32 5.8 31.58 5.59 31L3.91 31C3.7 31.58 3.15 32 2.5 32C1.67 32 1 31.33 1 30.5C1 29.85 1.42 29.3 2 29.09L2 27.41C1.42 27.2 1 26.65 1 26C1 25.35 1.42 24.8 2 24.59L2 22.91C1.42 22.7 1 22.15 1 21.5C1 20.85 1.42 20.3 2 20.09L2 18.41C1.42 18.2 1 17.65 1 17C1 16.35 1.42 15.8 2 15.59L2 13.91C1.42 13.7 1 13.15 1 12.5C1 11.85 1.42 11.3 2 11.09L2 9.41C1.42 9.2 1 8.65 1 8C1 7.35 1.42 6.8 2 6.59L2 4.91C1.42 4.7 1 4.15 1 3.5C1 2.67 1.67 2 2.5 2C3.15 2 3.7 2.42 3.91 3L5.59 3C5.8 2.42 6.35 2 7 2C7.65 2 8.2 2.42 8.41 3L10.09 3C10.3 2.42 10.85 2 11.5 2C12.15 2 12.7 2.42 12.91 3L14.59 3C14.8 2.42 15.35 2 16 2C16.65 2 17.2 2.42 17.41 3L19.09 3C19.3 2.42 19.85 2 20.5 2C21.15 2 21.7 2.42 21.91 3L23.59 3C23.8 2.42 24.35 2 25 2C25.65 2 26.2 2.42 26.41 3L28.09 3C28.3 2.42 28.85 2 29.5 2C30.33 2 31 2.67 31 3.5C31 4.15 30.58 4.7 30 4.91L30 6.59C30.58 6.8 31 7.35 31 8C31 8.65 30.58 9.2 30 9.41L30 11.09C30.58 11.3 31 11.85 31 12.5C31 13.15 30.58 13.7 30 13.91L30 15.59C30.58 15.8 31 16.35 31 17C31 17.65 30.58 18.2 30 18.41L30 20.09C30.58 20.3 31 20.85 31 21.5C31 22.15 30.58 22.7 30 22.91L30 24.59C30.58 24.8 31 25.35 31 26ZM27 6L5 6L5 28L27 28L27 6ZM14 22L21 13.5L25.5 20.5L25.5 26.5L6.5 26.5L12.5 20.5L14 22ZM11 15C9.34 15 8 13.66 8 12C8 10.34 9.34 9 11 9C12.66 9 14 10.34 14 12C14 13.66 12.66 15 11 15Z" />
</svg>