<svg version="1.2" baseProfile="tiny-ps" xmlns="http://www.w3.org/2000/svg" width="33" height="33"><style></style><path id="PICTURE" d="M32 26c0 .65-.42 1.2-1 1.41v1.68c.58.21 1 .76 1 1.41 0 .83-.67 1.5-1.5 1.5-.65 0-1.2-.42-1.41-1h-1.68c-.21.58-.76 1-1.41 1-.65 0-1.2-.42-1.41-1h-1.68c-.21.58-.76 1-1.41 1-.65 0-1.2-.42-1.41-1h-1.68c-.21.58-.76 1-1.41 1-.65 0-1.2-.42-1.41-1h-1.68c-.21.58-.76 1-1.41 1-.65 0-1.2-.42-1.41-1H9.41c-.21.58-.76 1-1.41 1-.65 0-1.2-.42-1.41-1H4.91c-.21.58-.76 1-1.41 1-.83 0-1.5-.67-1.5-1.5 0-.65.42-1.2 1-1.41v-1.68c-.58-.21-1-.76-1-1.41 0-.65.42-1.2 1-1.41v-1.68c-.58-.21-1-.76-1-1.41 0-.65.42-1.2 1-1.41v-1.68c-.58-.21-1-.76-1-1.41 0-.65.42-1.2 1-1.41v-1.68c-.58-.21-1-.76-1-1.41 0-.65.42-1.2 1-1.41V9.41C2.42 9.2 2 8.65 2 8c0-.65.42-1.2 1-1.41V4.91c-.58-.21-1-.76-1-1.41C2 2.67 2.67 2 3.5 2c.65 0 1.2.42 1.41 1h1.68c.21-.58.76-1 1.41-1 .65 0 1.2.42 1.41 1h1.68c.21-.58.76-1 1.41-1 .65 0 1.2.42 1.41 1h1.68c.21-.58.76-1 1.41-1 .65 0 1.2.42 1.41 1h1.68c.21-.58.76-1 1.41-1 .65 0 1.2.42 1.41 1h1.68c.21-.58.76-1 1.41-1 .65 0 1.2.42 1.41 1h1.68c.21-.58.76-1 1.41-1 .83 0 1.5.67 1.5 1.5 0 .65-.42 1.2-1 1.41v1.68c.58.21 1 .76 1 1.41 0 .65-.42 1.2-1 1.41v1.68c.58.21 1 .76 1 1.41 0 .65-.42 1.2-1 1.41v1.68c.58.21 1 .76 1 1.41 0 .65-.42 1.2-1 1.41v1.68c.58.21 1 .76 1 1.41 0 .65-.42 1.2-1 1.41v1.68c.58.21 1 .76 1 1.41zM28 6H6v22h22V6zM15 22l7-8.5 4.5 7v6h-19l6-6L15 22zm-3-7c-1.66 0-3-1.35-3-3 0-1.66 1.34-3 3-3s3 1.34 3 3c0 1.65-1.34 3-3 3z" fill="#95e1d3"/></svg>