<svg version="1.2" baseProfile="tiny-ps" xmlns="http://www.w3.org/2000/svg" width="32" height="35"><style></style><path id="EQUALIZER" d="M28.5 18.5h-3c-.83 0-1.5-.67-1.5-1.5v-6c0-.83.67-1.5 1.5-1.5h3c.83 0 1.5.67 1.5 1.5v6c0 .83-.67 1.5-1.5 1.5zm-3-15c0-.83.67-1.5 1.5-1.5s1.5.67 1.5 1.5V8h-3V3.5zm-8 23h-3c-.83 0-1.5-.67-1.5-1.5v-6c0-.83.67-1.5 1.5-1.5h3c.83 0 1.5.67 1.5 1.5v6c0 .83-.67 1.5-1.5 1.5zm-3-23c0-.83.67-1.5 1.5-1.5s1.5.67 1.5 1.5V16h-3V3.5zm-8 19h-3c-.83 0-1.5-.67-1.5-1.5v-6c0-.83.67-1.5 1.5-1.5h3c.83 0 1.5.67 1.5 1.5v6c0 .83-.67 1.5-1.5 1.5zm-3-19C3.5 2.67 4.17 2 5 2s1.5.67 1.5 1.5V12h-3V3.5zm3 29c0 .83-.67 1.5-1.5 1.5s-1.5-.67-1.5-1.5V24h3v8.5zm11 0c0 .83-.67 1.5-1.5 1.5s-1.5-.67-1.5-1.5V28h3v4.5zm11 0c0 .83-.67 1.5-1.5 1.5s-1.5-.67-1.5-1.5V20h3v12.5z" fill="#95e1d3"/></svg>